SOURCES: ILLUMINATI -

uploaded to public site. TutTut.



Complete name : Ghost Rider Spirit of Vengeance 2012 TS XviD - INSPiRAL.avi
Format : AVI
Format/Info : Audio Video Interleave
File size : 1.36 GiB
Duration : 1h 28mn
Overall bit rate : 2 207 Kbps
Writing library : VirtualDub build 32842/release

Video
ID : 0
Format : MPEG-4 Visual
Format profile : Advanced Simple@L5
Format settings, BVOP : 2
Format settings, QPel : No
Format settings, GMC : No warppoints
Format settings, Matrix : Default (MPEG)
Muxing mode : Packed bitstream
Codec ID : XVID
Codec ID/Hint : XviD
Duration : 1h 28mn
Bit rate : 2 069 Kbps
Width : 720 pixels
Height : 304 pixels
Display aspect ratio : 2.35:1
Frame rate : 23.976 fps
Color space : YUV
Chroma subsampling : 4:2:0
Bit depth : 8 bits
Scan type : Progressive
Compression mode : Lossy
Bits/(Pixel*Frame) : 0.394
Stream size : 1.27 GiB (94%)
Writing library : XviD 64

Audio
ID : 1
Format : MPEG Audio
Format version : Version 1
Format profile : Layer 3
Mode : Joint stereo
Mode extension : MS Stereo
Codec ID : 55
Codec ID/Hint : MP3
Duration : 1h 28mn
Bit rate mode : Constant
Bit rate : 128 Kbps
Channel(s) : 2 channels
Sampling rate : 44.1 KHz
Compression mode : Lossy
Stream size : 80.7 MiB (6%)
Alignment : Split accross interleaves
Interleave, duration : 42 ms (1.00 video frame)
Interleave, preload duration : 500 ms

Notes - Great Video on this rls, Really nice cam, well done that man! - we put our touch on it:p
Audio, great to have line for this, so thx for that, had a hissing noise so we cleaned up the audio,check sample,
sounds great now, imo v9 a8.